<?xml version="1.0" encoding="utf-8"?>
<!-- Generator: Adobe Illustrator 17.0.0, SVG Export Plug-In . SVG Version: 6.00 Build 0)  -->
<!DOCTYPE svg PUBLIC "-//W3C//DTD SVG 1.1//EN" "http://www.w3.org/Graphics/SVG/1.1/DTD/svg11.dtd">
<svg version="1.1" xmlns="http://www.w3.org/2000/svg" xmlns:xlink="http://www.w3.org/1999/xlink" x="0px" y="0px" width="150px"
	 height="50px" viewBox="0 0 150 50" style="enable-background:new 0 0 150 50;" xml:space="preserve">
<g id="grey_copy_4">
	<g>
		<g>
			<text transform="matrix(1 0 0 1 257.2033081 18.6654491)"><tspan x="0" y="0" style="fill:#898989; font-family:'Roboto-Light'; font-size:13.7773705;">Optimised </tspan><tspan x="65.112793" y="0" style="fill:#898989; font-family:'Roboto-Light'; font-size:13.7773705;">b</tspan><tspan x="72.7080078" y="0" style="fill:#898989; font-family:'Roboto-Light'; font-size:13.7773705;">y </tspan></text>
		</g>
	</g>
	<g>
		<path style="fill:#E54013;" d="M244.7693024,15.8116541l-6.6359711,3.831315v0.0040798v0.0038185v16.0301247l6.6359711,3.8308182
			v0.0004959l6.635437-3.8313141V19.6508675v-0.0078983L244.7693024,15.8116541z"/>
		<path style="fill:#E54013;" d="M231.4986115,20.6282578l-6.6357117,3.8312893v0.003582v0.0040798v11.2137833l6.6352081,3.8308182
			l0.0005035,0.0004959l6.6347198-3.8313141V24.4672089V24.463129v-0.003582L231.4986115,20.6282578z"/>
		<polygon style="fill:#E54013;" points="218.2274475,25.2962151 211.59198,29.1275311 211.59198,29.1362133 211.59198,29.1362133 
			211.59198,35.6809921 218.2274475,39.5118103 218.2274475,39.5123062 224.8628998,35.6809921 224.8628998,29.1362133 
			224.8628998,29.1275311 		"/>
		<polygon style="fill:#F26F51;" points="211.59198,29.1275311 211.59198,29.1362133 218.2274475,32.9664803 
			224.8628998,29.1362133 224.8628998,29.1275311 218.2274475,25.2962151 		"/>
		
			<linearGradient id="SVGID_1_" gradientUnits="userSpaceOnUse" x1="249.7429047" y1="36.7137527" x2="251.8269501" y2="40.2235222">
			<stop  offset="0" style="stop-color:#000000"/>
			<stop  offset="1" style="stop-color:#000000;stop-opacity:0"/>
		</linearGradient>
		<polygon style="opacity:0.2;fill:url(#SVGID_1_);" points="244.7693024,39.5077057 244.7693024,39.5163879 
			251.4052582,43.3472061 258.0397034,39.5163879 258.0397034,39.5077057 251.4052582,35.6763916 		"/>
		
			<linearGradient id="SVGID_2_" gradientUnits="userSpaceOnUse" x1="236.4720154" y1="36.7135887" x2="238.5561981" y2="40.2235641">
			<stop  offset="0" style="stop-color:#000000"/>
			<stop  offset="1" style="stop-color:#000000;stop-opacity:0"/>
		</linearGradient>
		<polygon style="opacity:0.2;fill:url(#SVGID_2_);" points="231.4981079,39.5077057 231.4981079,39.5163879 
			238.1343384,43.3472061 244.7693024,39.5163879 244.7693024,39.5077057 238.1343384,35.6763916 		"/>
		
			<linearGradient id="SVGID_3_" gradientUnits="userSpaceOnUse" x1="223.2012634" y1="36.7136459" x2="225.2854004" y2="40.2235489">
			<stop  offset="0" style="stop-color:#000000"/>
			<stop  offset="1" style="stop-color:#000000;stop-opacity:0"/>
		</linearGradient>
		<polygon style="opacity:0.2;fill:url(#SVGID_3_);" points="218.2274475,39.5077057 218.2274475,39.5163879 
			224.8634186,43.3472061 231.4983673,39.5163879 231.4983673,39.5077057 224.8634186,35.6763916 		"/>
		<polygon style="fill:#F45D34;" points="211.59198,29.1362133 211.59198,35.6809921 218.2274475,39.5118103 
			218.2274475,32.9664803 		"/>
		<polygon style="fill:#E54013;" points="218.2274475,32.9664803 218.2274475,32.9664803 218.2274475,39.5118103 
			218.2274475,39.5123062 224.8628998,35.6809921 224.8628998,29.1362133 		"/>
		<polygon style="fill:#F26F51;" points="224.8628998,24.459547 224.8628998,24.4672089 231.4986115,28.2990475 
			238.1333313,24.4672089 238.1333313,24.459547 231.4986115,20.6282578 		"/>
		<polygon style="fill:#F45D34;" points="224.8628998,24.463129 224.8628998,35.6809921 231.4981079,39.5118103 
			231.4981079,28.2939472 		"/>
		<polygon style="fill:#E54013;" points="231.4986115,28.2939472 231.4981079,32.9664803 231.4981079,39.5118103 
			231.4986115,39.5123062 238.1333313,35.6809921 238.1333313,24.463129 		"/>
		<polygon style="fill:#F26F51;" points="238.1335602,19.6429691 238.1335602,19.6508675 244.7695313,23.4824448 
			251.4049988,19.6508675 251.4049988,19.6429691 244.7695313,15.8116541 		"/>
		<polygon style="fill:#F45D34;" points="238.1333313,19.647049 238.1333313,35.6809921 244.7693024,39.5118103 
			244.7693024,23.4773445 		"/>
		<polygon style="fill:#E54013;" points="244.7693024,23.4824448 244.7693024,32.9664803 244.7693024,39.5118103 
			244.7693024,39.5123062 251.4047394,35.6809921 251.4047394,19.6429691 		"/>
		<path style="fill:#FFFFFF;" d="M235.6987152,8.3675203c0.0181274,0.2041655,0.2405701,0.3507719,0.4967194,0.3276539
			l1.9320068-0.1746931l2.4925537,7.6633892c0.0569611,0.1716328,0.2602692,0.2819405,0.4837341,0.2619076l6.4919281-0.586894
			c0.2563934-0.0232229,0.4487152-0.2070942,0.430069-0.4116783c-0.0183868-0.2040348-0.2405701-0.3505106-0.496994-0.327261
			l-6.105011,0.551877l-0.4706726-1.4474134l7.3694458-0.6662903c0.1871796-0.0169725,0.3478088-0.1215525,0.4075928-0.2659883
			l1.9176941-4.64293c0.0492706-0.1193819,0.0219727-0.2487545-0.0735626-0.3433704
			c-0.0952454-0.0947475-0.2459259-0.1435204-0.4006958-0.1296082l-10.8682404,0.9825945l-0.3738861-1.1505136
			c-0.0564423-0.171607-0.260498-0.2820711-0.483963-0.2618823l-2.318924,0.2096577
			C235.8723602,7.9791951,235.680069,8.1633282,235.6987152,8.3675203z M246.267395,11.5091391l2.3186493-0.209527
			l-0.6394806,1.5476265l-1.5456238,0.1397018L246.267395,11.5091391z M246.0669098,9.2923985l3.4778442-0.314395
			l-0.6394806,1.5475216l-2.7045441,0.2446747L246.0669098,9.2923985z M243.485199,11.7606916l1.8548737-0.1676579
			l0.1335602,1.4778013l-1.8546143,0.1677885L243.485199,11.7606916z M243.2849884,9.5439501l1.8543549-0.1676579
			l0.134079,1.4778013l-1.8548889,0.1676579L243.2849884,9.5439501z M240.2466431,12.0535107l2.3109894-0.2089252
			l0.1338196,1.4778013l-1.9733887,0.1784067L240.2466431,12.0535107z M239.5407562,9.8824568l2.816391-0.254612
			l0.1338196,1.4778013l-2.4797974,0.2240934L239.5407562,9.8824568z"/>
		
			<ellipse transform="matrix(-0.0900756 -0.9959349 0.9959349 -0.0900756 250.4812164 265.2326965)" style="fill:#FFFFFF;" cx="246.404007" cy="18.1917248" rx="1.3297098" ry="1.3967948"/>
		
			<ellipse transform="matrix(-0.0899824 -0.9959434 0.9959434 -0.0899824 246.0806732 261.9041138)" style="fill:#FFFFFF;" cx="242.6944122" cy="18.527113" rx="1.3296329" ry="1.3969008"/>
		<g>
			<text transform="matrix(1 0 0 1 289.3254395 35.9458275)"><tspan x="0" y="0" style="fill:#E2E2E2; font-family:'Roboto-Light'; font-size:15.7850103;">Escala</tspan><tspan x="45.8671875" y="0" style="fill:#E2E2E2; font-family:'Roboto-Light'; font-size:15.7850103;">t</tspan><tspan x="50.9545898" y="0" style="fill:#E2E2E2; font-family:'Roboto-Light'; font-size:15.7850103;">or</tspan></text>
			<text transform="matrix(1 0 0 1 256.7287598 36.134304)" style="fill:#FFFFFF; font-family:'Arvo-Bold'; font-size:15.4669304;">ROI</text>
		</g>
	</g>
</g>
<g id="grey_copy_7">
	<g>
		<g>
			<g>
				<path style="fill:#898989;" d="M50.0133781,18.6659069V8.8709841h2.8457031
					c1.1977539,0,2.1865234,0.3994141,2.9667969,1.1972656c0.7802734,0.7988281,1.1704102,1.8232422,1.1704102,3.0742188v1.2578125
					c0,1.2558594-0.3901367,2.281251-1.1704102,3.0742197c-0.7802734,0.7939453-1.769043,1.1914063-2.9667969,1.1914063H50.0133781z
					 M50.8141594,9.556531v8.4228525h2.0449219c0.96875,0,1.7661133-0.3378906,2.3916016-1.0146484
					s0.9384766-1.5332041,0.9384766-2.5683603v-1.2763672c0-1.0224609-0.3139648-1.8710938-0.9418945-2.5478516
					s-1.4238281-1.015625-2.3881836-1.015625H50.8141594z"/>
				<path style="fill:#898989;" d="M61.5641594,18.8065319c-0.9101563,0-1.6669922-0.3359375-2.2700195-1.0087891
					c-0.6035156-0.6728516-0.9047852-1.5244141-0.9047852-2.5566416v-0.3691406
					c0-1.0410156,0.2993164-1.9042969,0.8979492-2.5908203c0.5986328-0.6855469,1.3242188-1.0292969,2.1762695-1.0292969
					c0.8920898,0,1.5942383,0.2832031,2.1054688,0.8476563c0.5112343,0.5654297,0.7670937,1.3193359,0.7670937,2.2607422v0.6865234
					h-5.1396523v0.1943359c0,0.8193369,0.2172852,1.5039072,0.6523438,2.0537119
					c0.4350586,0.5507813,1.0068359,0.8261719,1.715332,0.8261719c0.5024414,0,0.9306641-0.0693359,1.2851563-0.2089844
					c0.3540039-0.1386719,0.6567383-0.3378906,0.9082031-0.5986328l0.3432655,0.5517578
					c-0.2739296,0.2880859-0.620121,0.5175781-1.0395546,0.6875C62.6417961,18.721571,62.1427727,18.8065319,61.5641594,18.8065319z
					 M61.4635735,11.9383669c-0.5966797,0-1.0966797,0.2275391-1.5004883,0.6806641
					c-0.4033203,0.4541016-0.6386719,1.0234375-0.7060547,1.7080078l0.0131836,0.0332031h4.2651367V14.15907
					c0-0.6308594-0.1860352-1.1582031-0.5581055-1.5830078C62.6046867,12.1512575,62.1002922,11.9383669,61.4635735,11.9383669z"/>
				<path style="fill:#898989;" d="M67.9147491,16.8426647l0.2353516,0.8544922h0.0405273l0.2558594-0.8544922l1.9775391-5.4560556
					h0.8344727l-2.7651367,7.2792978h-0.6459961l-2.7714844-7.2792978h0.8344727L67.9147491,16.8426647z"/>
				<path style="fill:#898989;" d="M75.2272491,18.8065319c-0.9101563,0-1.6669922-0.3359375-2.2700195-1.0087891
					c-0.6035156-0.6728516-0.9047852-1.5244141-0.9047852-2.5566416v-0.3691406
					c0-1.0410156,0.2993164-1.9042969,0.8979492-2.5908203c0.5986328-0.6855469,1.3242188-1.0292969,2.1762695-1.0292969
					c0.8920898,0,1.5942383,0.2832031,2.1054688,0.8476563c0.5112305,0.5654297,0.7670898,1.3193359,0.7670898,2.2607422v0.6865234
					h-5.1396484v0.1943359c0,0.8193369,0.2172852,1.5039072,0.6523438,2.0537119
					c0.4350586,0.5507813,1.0068359,0.8261719,1.715332,0.8261719c0.5024414,0,0.9306641-0.0693359,1.2851563-0.2089844
					c0.3540039-0.1386719,0.6567383-0.3378906,0.9082031-0.5986328l0.3432617,0.5517578
					c-0.2739258,0.2880859-0.6201172,0.5175781-1.0395508,0.6875C76.3048859,18.721571,75.8058624,18.8065319,75.2272491,18.8065319
					z M75.1266632,11.9383669c-0.5966797,0-1.0966797,0.2275391-1.5004883,0.6806641
					c-0.4033203,0.4541016-0.6386719,1.0234375-0.7060547,1.7080078l0.0131836,0.0332031h4.2651367V14.15907
					c0-0.6308594-0.1860352-1.1582031-0.5581055-1.5830078C76.2677765,12.1512575,75.763382,11.9383669,75.1266632,11.9383669z"/>
				<path style="fill:#898989;" d="M80.4948273,18.6659069H79.694046V8.1707888h0.8007813V18.6659069z"/>
				<path style="fill:#898989;" d="M82.2707062,14.9188356c0-1.0722656,0.293457-1.9511719,0.8813477-2.6376953
					c0.5874023-0.6855469,1.3652344-1.0292969,2.3339844-1.0292969c0.9731445,0,1.753418,0.34375,2.3413086,1.0292969
					c0.5874023,0.6865234,0.8813477,1.5654297,0.8813477,2.6376953v0.2216797c0,1.0761728-0.2929688,1.9570322-0.8779297,2.640626
					c-0.5854492,0.6835938-1.3623047,1.0253906-2.3310547,1.0253906c-0.9780273,0-1.7602539-0.3417969-2.3476563-1.0253906
					c-0.5878906-0.6835938-0.8813477-1.5644531-0.8813477-2.640626V14.9188356z M83.0778351,15.1375856
					c0,0.8417969,0.2128906,1.5498056,0.6391602,2.1230478c0.4257813,0.5732422,1.0200195,0.8603516,1.7827148,0.8603516
					c0.7490234,0,1.3374023-0.2871094,1.765625-0.8603516s0.6425781-1.281251,0.6425781-2.1230478v-0.2226563
					c0-0.828125-0.215332-1.53125-0.6455078-2.109375c-0.4306641-0.578125-1.0229492-0.8671875-1.7763672-0.8671875
					s-1.3432617,0.2890625-1.769043,0.8671875c-0.4262695,0.578125-0.6391602,1.28125-0.6391602,2.109375V15.1375856z"/>
				<path style="fill:#898989;" d="M96.2497101,15.228406c0,1.0898447-0.246582,1.9580088-0.7402344,2.6064463
					c-0.4931641,0.6484375-1.1728516,0.9716797-2.0380859,0.9716797c-0.5112305,0-0.9584961-0.0957031-1.3422852-0.2890625
					c-0.3833008-0.1923828-0.6962891-0.46875-0.9384766-0.8271484v3.7734375h-0.8071289V11.3866091h0.6796875l0.1005859,1.1298828
					c0.2421875-0.4033203,0.5551758-0.7148438,0.9384766-0.9345703s0.8354492-0.3300781,1.3554688-0.3300781
					c0.8745117,0,1.5585938,0.3496094,2.0517578,1.046875c0.4936523,0.6972656,0.7402344,1.6269531,0.7402344,2.7880859V15.228406z
					 M95.4425812,15.0770388c0-0.9248047-0.184082-1.6796875-0.5517578-2.2626953
					c-0.3676758-0.5839844-0.90625-0.8759766-1.6147461-0.8759766c-0.5424805,0-0.9833984,0.1289063-1.3217773,0.3876953
					c-0.3388672,0.2578125-0.5932617,0.59375-0.7636719,1.0068359v3.5019541
					c0.184082,0.3994141,0.449707,0.7138672,0.7973633,0.9423828c0.3476563,0.2294922,0.78125,0.34375,1.3017578,0.34375
					c0.7041016,0,1.2387695-0.2646484,1.6044922-0.7949219c0.3652344-0.5292969,0.5483398-1.2324219,0.5483398-2.1074228V15.0770388
					z"/>
				<path style="fill:#898989;" d="M100.7907257,18.8065319c-0.9101563,0-1.6669922-0.3359375-2.2700195-1.0087891
					c-0.6035156-0.6728516-0.9047852-1.5244141-0.9047852-2.5566416v-0.3691406
					c0-1.0410156,0.2993164-1.9042969,0.8979492-2.5908203c0.5986328-0.6855469,1.3242188-1.0292969,2.1762695-1.0292969
					c0.8920898,0,1.5942383,0.2832031,2.1054688,0.8476563c0.5112305,0.5654297,0.7670898,1.3193359,0.7670898,2.2607422v0.6865234
					h-5.1396484v0.1943359c0,0.8193369,0.2172852,1.5039072,0.6523438,2.0537119
					c0.4350586,0.5507813,1.0068359,0.8261719,1.715332,0.8261719c0.5024414,0,0.9306641-0.0693359,1.2851563-0.2089844
					c0.3540039-0.1386719,0.6567383-0.3378906,0.9082031-0.5986328l0.3432617,0.5517578
					c-0.2739258,0.2880859-0.6201172,0.5175781-1.0395508,0.6875
					C101.8683624,18.721571,101.369339,18.8065319,100.7907257,18.8065319z M100.6901398,11.9383669
					c-0.5966797,0-1.0966797,0.2275391-1.5004883,0.6806641c-0.4033203,0.4541016-0.6386719,1.0234375-0.7060547,1.7080078
					l0.0131836,0.0332031h4.2651367V14.15907c0-0.6308594-0.1860352-1.1582031-0.5581055-1.5830078
					C101.8312531,12.1512575,101.3268585,11.9383669,100.6901398,11.9383669z"/>
				<path style="fill:#898989;" d="M104.8405304,15.0868044c0-1.1611328,0.2456055-2.0908203,0.7368164-2.7880859
					s1.1762695-1.046875,2.0551758-1.046875c0.5068359,0,0.9462891,0.1083984,1.3183594,0.3232422
					c0.3725586,0.2158203,0.6816406,0.5205078,0.9287109,0.9150391V8.1707888h0.800293v10.4951181h-0.7128906l-0.0673828-1.0566406
					c-0.2421875,0.3857422-0.5541992,0.6816406-0.9350586,0.8886719c-0.3813477,0.2060547-0.8300781,0.3085938-1.3457031,0.3085938
					c-0.8701172,0-1.550293-0.3232422-2.0415039-0.9716797s-0.7368164-1.5166016-0.7368164-2.6064463V15.0868044z
					 M105.6481476,15.228406c0,0.88379,0.1757813,1.5859385,0.527832,2.1083994s0.8823242,0.7841797,1.5908203,0.7841797
					c0.5205078,0,0.9541016-0.1171875,1.3017578-0.3515625s0.6181641-0.5585938,0.8110352-0.9726563v-3.4326181
					c-0.184082-0.4238281-0.4443359-0.7666016-0.7807617-1.0302734s-0.7758789-0.3955078-1.3183594-0.3955078
					c-0.7084961,0-1.2412109,0.2919922-1.5976563,0.875s-0.534668,1.3408203-0.534668,2.2734375V15.228406z"/>
				<path style="fill:#898989;" d="M122.0421906,15.228406c0,1.0898447-0.2470703,1.9580088-0.7402344,2.6064463
					s-1.1728516,0.9716797-2.0380859,0.9716797c-0.5341797,0-0.9936523-0.1064453-1.3793945-0.3193359
					s-0.6972656-0.5185547-0.9350586-0.9179688l-0.0874023,1.0966797h-0.6928711V8.1707888h0.8071289v4.359375
					c0.2421875-0.4082031,0.5517578-0.7226563,0.9287109-0.9453125c0.3764648-0.2216797,0.824707-0.3330078,1.3452148-0.3330078
					c0.8745117,0,1.5585938,0.3496094,2.0517578,1.046875s0.7402344,1.6269531,0.7402344,2.7880859V15.228406z
					 M121.2282257,15.0868044c0-0.9326172-0.1796875-1.6904297-0.5385742-2.2734375
					c-0.3583984-0.5830078-0.8901367-0.875-1.5942383-0.875c-0.5605469,0-1.012207,0.1396484-1.3554688,0.4189453
					s-0.5976563,0.6376953-0.7636719,1.0742188v3.3037119c0.1796875,0.4238281,0.4477539,0.7607422,0.8041992,1.0107422
					s0.7993164,0.375,1.3286133,0.375c0.7041016,0,1.2333984-0.2617188,1.5874023-0.7841797
					c0.3544922-0.5224609,0.5317383-1.2246094,0.5317383-2.1083994V15.0868044z"/>
				<path style="fill:#898989;" d="M125.8361359,16.6942272l0.2558594,0.8681641h0.0405273l2.199707-6.1757822h0.9013672
					l-3.1616211,8.4423838c-0.1884766,0.4941406-0.4331055,0.9130859-0.7333984,1.2587891
					c-0.3007813,0.3447266-0.7402344,0.5175781-1.3183594,0.5175781c-0.0942383,0-0.2089844-0.0097656-0.3432617-0.0302734
					c-0.1347656-0.0205078-0.2333984-0.0410156-0.2958984-0.0634766l0.0942383-0.6728516
					c0.0537109,0.0087891,0.1401367,0.0185547,0.2587891,0.0302734c0.1186523,0.0107422,0.2050781,0.0166016,0.2587891,0.0166016
					c0.3500977,0,0.6303711-0.1240234,0.8413086-0.3730469c0.2104492-0.2490234,0.3901367-0.5683594,0.5380859-0.9589844
					l0.3833008-0.9824219l-2.8120117-7.1845713h0.8950195L125.8361359,16.6942272z"/>
			</g>
		</g>
		<g>
			<path style="fill:#E54013;" d="M36.7692947,15.8116541l-6.6359711,3.831315v0.0040798v0.0038185v16.0301247l6.6359711,3.8308182
				v0.0004959l6.6354485-3.8313141V19.6508675v-0.0078983L36.7692947,15.8116541z"/>
			<path style="fill:#E54013;" d="M23.4986095,20.6282578l-6.6357098,3.8312893v0.003582v0.0040798v11.2137833l6.6352119,3.8308182
				l0.0004978,0.0004959l6.6347141-3.8313141V24.4672089V24.463129v-0.003582L23.4986095,20.6282578z"/>
			<polygon style="fill:#E54013;" points="10.2274523,25.2962151 3.591979,29.1275311 3.591979,29.1362133 3.591979,29.1362133 
				3.591979,35.6809921 10.2274523,39.5118103 10.2274523,39.5123062 16.8628998,35.6809921 16.8628998,29.1362133 
				16.8628998,29.1275311 			"/>
			<polygon style="fill:#F26F51;" points="3.591979,29.1275311 3.591979,29.1362133 10.2274523,32.9664803 16.8628998,29.1362133 
				16.8628998,29.1275311 10.2274523,25.2962151 			"/>
			<linearGradient id="SVGID_4_" gradientUnits="userSpaceOnUse" x1="41.7429123" y1="36.7137527" x2="43.8269577" y2="40.2235222">
				<stop  offset="0" style="stop-color:#000000"/>
				<stop  offset="1" style="stop-color:#000000;stop-opacity:0"/>
			</linearGradient>
			<polygon style="opacity:0.2;fill:url(#SVGID_4_);" points="36.7692947,39.5077057 36.7692947,39.5163879 43.4052658,43.3472061 
				50.0396919,39.5163879 50.0396919,39.5077057 43.4052658,35.6763916 			"/>
			<linearGradient id="SVGID_5_" gradientUnits="userSpaceOnUse" x1="28.4720211" y1="36.7135887" x2="30.5561924" y2="40.2235641">
				<stop  offset="0" style="stop-color:#000000"/>
				<stop  offset="1" style="stop-color:#000000;stop-opacity:0"/>
			</linearGradient>
			<polygon style="opacity:0.2;fill:url(#SVGID_5_);" points="23.4981117,39.5077057 23.4981117,39.5163879 30.1343441,43.3472061 
				36.7692947,39.5163879 36.7692947,39.5077057 30.1343441,35.6763916 			"/>
			<linearGradient id="SVGID_6_" gradientUnits="userSpaceOnUse" x1="15.2012644" y1="36.7136459" x2="17.2853928" y2="40.2235489">
				<stop  offset="0" style="stop-color:#000000"/>
				<stop  offset="1" style="stop-color:#000000;stop-opacity:0"/>
			</linearGradient>
			<polygon style="opacity:0.2;fill:url(#SVGID_6_);" points="10.2274523,39.5077057 10.2274523,39.5163879 16.8634224,43.3472061 
				23.498373,39.5163879 23.498373,39.5077057 16.8634224,35.6763916 			"/>
			<polygon style="fill:#F45D34;" points="3.591979,29.1362133 3.591979,35.6809921 10.2274523,39.5118103 10.2274523,32.9664803 
							"/>
			<polygon style="fill:#E54013;" points="10.2274523,32.9664803 10.2274523,32.9664803 10.2274523,39.5118103 
				10.2274523,39.5123062 16.8628998,35.6809921 16.8628998,29.1362133 			"/>
			<polygon style="fill:#F26F51;" points="16.8628998,24.459547 16.8628998,24.4672089 23.4986095,28.2990475 
				30.1333237,24.4672089 30.1333237,24.459547 23.4986095,20.6282578 			"/>
			<polygon style="fill:#F45D34;" points="16.8628998,24.463129 16.8628998,35.6809921 23.4981117,39.5118103 
				23.4981117,28.2939472 			"/>
			<polygon style="fill:#E54013;" points="23.4986095,28.2939472 23.4981117,32.9664803 23.4981117,39.5118103 
				23.4986095,39.5123062 30.1333237,35.6809921 30.1333237,24.463129 			"/>
			<polygon style="fill:#F26F51;" points="30.1335602,19.6429691 30.1335602,19.6508675 36.7695313,23.4824448 
				43.4050026,19.6508675 43.4050026,19.6429691 36.7695313,15.8116541 			"/>
			<polygon style="fill:#F45D34;" points="30.1333237,19.647049 30.1333237,35.6809921 36.7692947,39.5118103 
				36.7692947,23.4773445 			"/>
			<polygon style="fill:#E54013;" points="36.7692947,23.4824448 36.7692947,32.9664803 36.7692947,39.5118103 
				36.7692947,39.5123062 43.4047432,35.6809921 43.4047432,19.6429691 			"/>
			<path style="fill:#FFFFFF;" d="M27.698719,8.3675203c0.0181179,0.2041655,0.2405643,0.3507719,0.4967194,0.3276539
				l1.9320011-0.1746931l2.4925632,7.6633892c0.0569572,0.1716328,0.2602615,0.2819405,0.4837303,0.2619076l6.4919243-0.586894
				c0.2563896-0.0232229,0.4487114-0.2070942,0.4300613-0.4116783c-0.018383-0.2040348-0.2405663-0.3505106-0.4969864-0.327261
				l-6.105011,0.551877l-0.4706802-1.4474134l7.3694458-0.6662903c0.1871948-0.0169725,0.3478165-0.1215525,0.4076004-0.2659883
				l1.9176979-4.64293c0.0492668-0.1193819,0.021965-0.2487545-0.0735664-0.3433704
				c-0.0952415-0.0947475-0.2459297-0.1435204-0.4006958-0.1296082L31.3052864,9.1588154l-0.3738937-1.1505136
				c-0.0564346-0.171607-0.2604961-0.2820711-0.4839611-0.2618823l-2.3189163,0.2096577
				C27.872364,7.9791951,27.680069,8.1633282,27.698719,8.3675203z M38.2673912,11.5091391l2.3186531-0.209527l-0.6394806,1.5476265
				l-1.5456161,0.1397018L38.2673912,11.5091391z M38.0669098,9.2923985l3.4778519-0.314395l-0.6394806,1.5475216
				l-2.7045517,0.2446747L38.0669098,9.2923985z M35.485199,11.7606916l1.8548813-0.1676579l0.1335564,1.4778013
				l-1.8546219,0.1677885L35.485199,11.7606916z M35.2849808,9.5439501l1.8543587-0.1676579l0.134079,1.4778013
				l-1.8548813,0.1676579L35.2849808,9.5439501z M32.2466354,12.0535107l2.3109932-0.2089252l0.1338158,1.4778013
				l-1.9733734,0.1784067L32.2466354,12.0535107z M31.5407524,9.8824568l2.8163948-0.254612l0.1338196,1.4778013
				l-2.4798012,0.2240934L31.5407524,9.8824568z"/>
			
				<ellipse transform="matrix(-0.0900756 -0.9959349 0.9959349 -0.0900756 23.7454929 58.0782433)" style="fill:#FFFFFF;" cx="38.4040031" cy="18.1917248" rx="1.3297098" ry="1.3967948"/>
			
				<ellipse transform="matrix(-0.0899824 -0.9959434 0.9959434 -0.0899824 19.3643398 54.7478943)" style="fill:#FFFFFF;" cx="34.6944084" cy="18.527113" rx="1.3296329" ry="1.3969008"/>
			<g>
				<g>
					<path style="fill:#E2E2E2;" d="M89.1178741,30.5125866h-5.4033203v4.647459h6.1894531v0.7861328h-7.1064453V24.7235241
						h7.0678711v0.7861328h-6.1508789v4.2167969h5.4033203V30.5125866z"/>
					<path style="fill:#E2E2E2;" d="M96.6325226,33.822155c0-0.3896484-0.1606445-0.7304688-0.4819336-1.0224609
						s-0.9003906-0.5302734-1.737793-0.7148438c-0.9970703-0.2158184-1.7333984-0.5009747-2.2084961-0.8554668
						s-0.7128906-0.8554688-0.7128906-1.5029297c0-0.6376953,0.2685547-1.1757813,0.8056641-1.6152344
						c0.5366211-0.4394531,1.2470703-0.6591797,2.1308594-0.6591797c0.9404297,0,1.6855469,0.2333984,2.2353516,0.6982422
						s0.8115234,1.046875,0.7861328,1.7451172l-0.015625,0.046875h-0.8554688c0-0.4580078-0.1938477-0.8554688-0.5820313-1.1953125
						c-0.3876953-0.3388672-0.9106445-0.5087891-1.5683594-0.5087891c-0.6733398,0-1.1777344,0.1445313-1.5146484,0.4335938
						c-0.3364258,0.2890625-0.5043945,0.6279297-0.5043945,1.0166016c0,0.3828125,0.1450195,0.7001953,0.4350586,0.9511719
						c0.2905273,0.25,0.8696289,0.4697266,1.7382813,0.6591797c0.9916992,0.2216797,1.734375,0.5244141,2.2275391,0.9082012
						c0.4931641,0.3847656,0.7397461,0.90625,0.7397461,1.5664063c0,0.6953125-0.28125,1.2587891-0.84375,1.6894531
						c-0.5629883,0.4296875-1.3066406,0.6455078-2.2314453,0.6455078c-1.012207,0-1.8076172-0.2421875-2.3857422-0.7246094
						c-0.5776367-0.4833984-0.8515625-1.0585938-0.8208008-1.7265625l0.015625-0.0458984h0.8476563
						c0.0361328,0.5976563,0.28125,1.0332031,0.7363281,1.3037109c0.4545898,0.2714844,0.9902344,0.4072266,1.6069336,0.4072266
						c0.6679688,0,1.1948242-0.1464844,1.5800781-0.4384766S96.6325226,34.2381706,96.6325226,33.822155z"/>
					<path style="fill:#E2E2E2;" d="M102.7677765,35.322155c0.6113281,0,1.1508789-0.1738281,1.6186523-0.5224609
						c0.4672852-0.3476563,0.7011719-0.8320313,0.7011719-1.4511719h0.8168945l0.015625,0.046875
						c0.0253906,0.7705078-0.2827148,1.4150391-0.9248047,1.9345703c-0.6425781,0.5185547-1.3847656,0.7783203-2.2275391,0.7783203
						c-1.1357422,0-2.0131836-0.3896484-2.6323242-1.1679688s-0.9287109-1.7792969-0.9287109-3.0019512v-0.3242188
						c0-1.2119141,0.3110352-2.2089844,0.9326172-2.9902344s1.4951172-1.171875,2.6206055-1.171875
						c0.9145508,0,1.6762695,0.2705078,2.2851563,0.8095703c0.6088867,0.5400391,0.9033203,1.2490234,0.8828125,2.1279297
						l-0.015625,0.0458984h-0.824707c0-0.6679688-0.2246094-1.2011719-0.6743164-1.5996094
						s-1.0009766-0.5976563-1.6533203-0.5976563c-0.894043,0-1.5556641,0.3203125-1.9848633,0.9589844
						c-0.4287109,0.6386719-0.6435547,1.4433594-0.6435547,2.4140625v0.3232422
						c0,0.9853497,0.2133789,1.7958965,0.6401367,2.4326153C101.1979523,35.0037956,101.8634796,35.322155,102.7677765,35.322155z"
						/>
					<path style="fill:#E2E2E2;" d="M113.1344757,35.9461784c-0.0620117-0.2822266-0.1054688-0.5263672-0.1313477-0.7324219
						c-0.0253906-0.2050781-0.0385742-0.4130859-0.0385742-0.6240234c-0.3081055,0.4365234-0.7192383,0.7988281-1.2329102,1.0869141
						c-0.5141602,0.2871094-1.0917969,0.4316406-1.734375,0.4316406c-0.8120117,0-1.4423828-0.2158203-1.8920898-0.6474609
						s-0.6743164-1.0097656-0.6743164-1.734375c0-0.7705078,0.3325195-1.3876953,0.9980469-1.8496075
						c0.6655273-0.4628906,1.5634766-0.6943359,2.6938477-0.6943359h1.8417969v-1.0322266
						c0-0.5957031-0.1914063-1.0634766-0.5737305-1.4033203c-0.3833008-0.3388672-0.9189453-0.5087891-1.6074219-0.5087891
						c-0.6420898,0-1.175293,0.1621094-1.5991211,0.4863281c-0.4238281,0.3232422-0.6357422,0.71875-0.6357422,1.1865234
						l-0.8481445-0.0078125l-0.0151367-0.0458984c-0.0307617-0.6220703,0.2529297-1.1777344,0.8515625-1.6689453
						c0.5986328-0.4902344,1.3603516-0.7363281,2.2851563-0.7363281c0.9199219,0,1.659668,0.234375,2.2197266,0.7021484
						s0.840332,1.1376953,0.840332,2.0117188v4.0996075c0,0.2929688,0.0166016,0.578125,0.050293,0.8564453
						c0.0332031,0.2773438,0.0883789,0.5517578,0.1655273,0.8242188H113.1344757z M110.1051788,35.290905
						c0.6630859,0,1.2485352-0.1552734,1.7573242-0.4658203c0.5087891-0.3115234,0.8759766-0.7080078,1.1020508-1.1914063v-1.741209
						h-1.8574219c-0.8374023,0-1.5068359,0.1777325-2.0078125,0.5351543s-0.7514648,0.8007813-0.7514648,1.3300781
						c0,0.4521484,0.1552734,0.8203125,0.4663086,1.1054688S109.5553741,35.290905,110.1051788,35.290905z"/>
					<path style="fill:#E2E2E2;" d="M117.3732452,35.9461784h-0.9169922V23.9217663h0.9169922V35.9461784z"/>
					<path style="fill:#E2E2E2;" d="M125.2042999,35.9461784c-0.0620117-0.2822266-0.1054688-0.5263672-0.1313477-0.7324219
						c-0.0253906-0.2050781-0.0385742-0.4130859-0.0385742-0.6240234c-0.3081055,0.4365234-0.7192383,0.7988281-1.2329102,1.0869141
						c-0.5141602,0.2871094-1.0917969,0.4316406-1.734375,0.4316406c-0.8120117,0-1.4423828-0.2158203-1.8920898-0.6474609
						s-0.6743164-1.0097656-0.6743164-1.734375c0-0.7705078,0.3325195-1.3876953,0.9980469-1.8496075
						c0.6655273-0.4628906,1.5634766-0.6943359,2.6938477-0.6943359h1.8417969v-1.0322266
						c0-0.5957031-0.1914063-1.0634766-0.5737305-1.4033203c-0.3833008-0.3388672-0.9189453-0.5087891-1.6074219-0.5087891
						c-0.6420898,0-1.175293,0.1621094-1.5991211,0.4863281c-0.4238281,0.3232422-0.6357422,0.71875-0.6357422,1.1865234
						l-0.8481445-0.0078125l-0.0151367-0.0458984c-0.0307617-0.6220703,0.2529297-1.1777344,0.8515625-1.6689453
						c0.5986328-0.4902344,1.3603516-0.7363281,2.2851563-0.7363281c0.9199219,0,1.659668,0.234375,2.2197266,0.7021484
						s0.840332,1.1376953,0.840332,2.0117188v4.0996075c0,0.2929688,0.0166016,0.578125,0.050293,0.8564453
						c0.0332031,0.2773438,0.0883789,0.5517578,0.1655273,0.8242188H125.2042999z M122.1750031,35.290905
						c0.6630859,0,1.2485352-0.1552734,1.7573242-0.4658203c0.5087891-0.3115234,0.8759766-0.7080078,1.1020508-1.1914063v-1.741209
						h-1.8574219c-0.8374023,0-1.5068359,0.1777325-2.0078125,0.5351543s-0.7514648,0.8007813-0.7514648,1.3300781
						c0,0.4521484,0.1552734,0.8203125,0.4663086,1.1054688S121.6251984,35.290905,122.1750031,35.290905z"/>
					<path style="fill:#E2E2E2;" d="M129.8595734,25.471571v2.1347656h1.8339844v0.7558594h-1.8339844v5.4335918
						c0,0.5449219,0.0986328,0.9316406,0.2963867,1.1601563s0.4614258,0.3427734,0.7900391,0.3427734
						c0.1489258,0,0.2944336-0.0068359,0.4355469-0.0195313s0.3046875-0.0341797,0.4897461-0.0654297l0.1386719,0.6865234
						c-0.1542969,0.0664063-0.3417969,0.1181641-0.5629883,0.1533203c-0.2207031,0.0361328-0.4418945,0.0546875-0.6625977,0.0546875
						c-0.5859375,0-1.0419922-0.1855469-1.3681641-0.5556641c-0.3261719-0.3691406-0.4892578-0.9550781-0.4892578-1.7568359
						V28.362196h-1.4414063v-0.7558594h1.4414063V25.471571H129.8595734z"/>
					<path style="fill:#E2E2E2;" d="M132.9811554,31.6532116c0-1.2285156,0.3369141-2.2353516,1.0097656-3.0214844
						c0.6733398-0.7861328,1.5649414-1.1796875,2.6748047-1.1796875c1.1147461,0,2.0087891,0.3935547,2.6821289,1.1796875
						c0.6728516,0.7861328,1.0097656,1.7929688,1.0097656,3.0214844v0.2539063c0,1.2333965-0.3354492,2.2421856-1.0058594,3.0253887
						c-0.6708984,0.7841797-1.5610352,1.1757813-2.6708984,1.1757813c-1.1201172,0-2.0166016-0.3916016-2.6899414-1.1757813
						c-0.6728516-0.7832031-1.0097656-1.7919922-1.0097656-3.0253887V31.6532116z M133.9064484,31.9032116
						c0,0.9648418,0.2436523,1.7763653,0.7319336,2.4335918c0.4882813,0.65625,1.1689453,0.9853516,2.0424805,0.9853516
						c0.8583984,0,1.5327148-0.3291016,2.0234375-0.9853516c0.4907227-0.6572266,0.7358398-1.46875,0.7358398-2.4335918v-0.2539063
						c0-0.9492188-0.246582-1.7548828-0.7397461-2.4169922s-1.1713867-0.9941406-2.034668-0.9941406
						s-1.5390625,0.3320313-2.0273438,0.9941406s-0.7319336,1.4677734-0.7319336,2.4169922V31.9032116z"/>
					<path style="fill:#E2E2E2;" d="M146.1222687,28.4002819l-0.6860352-0.0458984
						c-0.5805664,0-1.0571289,0.1630859-1.4296875,0.4892578s-0.6386719,0.7744141-0.7978516,1.3447266v5.7578106h-0.9248047
						v-8.3398418h0.809082l0.1157227,1.3876953v0.0927734c0.2416992-0.5136719,0.5654297-0.9150391,0.9711914-1.203125
						c0.4057617-0.2871094,0.8891602-0.4316406,1.4492188-0.4316406c0.1181641,0,0.2324219,0.0097656,0.3427734,0.0273438
						c0.1103516,0.0185547,0.2016602,0.0371094,0.2739258,0.0576172L146.1222687,28.4002819z"/>
				</g>
				<g>
					<path style="fill:#FFFFFF;" d="M49.5822258,24.6854382h6.0566406c0.5893555,0,1.1152344,0.0878906,1.5786133,0.2636719
						c0.4628906,0.1767578,0.8535156,0.4121094,1.1704102,0.7070313c0.3173828,0.2949219,0.5600586,0.6367188,0.7290039,1.0273438
						c0.168457,0.3896484,0.2529297,0.7958984,0.2529297,1.2197266c0,0.3876953-0.0415039,0.7275391-0.1245117,1.0195313
						s-0.2041016,0.5507813-0.362793,0.7773438s-0.3535156,0.4267578-0.5849609,0.6005859
						c-0.2319336,0.1738281-0.4960938,0.3310547-0.7929688,0.4716797c0.2563477,0.1308594,0.4829102,0.3310547,0.6796875,0.6005859
						c0.1962891,0.2695313,0.3447266,0.6181641,0.4453125,1.0458965l0.3852539,1.4882813h0.9438477l0.0151367,2.2275391h-3.3227539
						l-0.453125-2.71875c-0.0454102-0.3222656-0.1147461-0.6005859-0.2080078-0.8349609
						c-0.0927734-0.2333984-0.2177734-0.4248047-0.3735352-0.5732422c-0.15625-0.1484356-0.3461914-0.2578106-0.5703125-0.3290997
						c-0.2241211-0.0703125-0.4897461-0.1054688-0.796875-0.1054688h-0.9741211v2.4921856h1.0498047v2.0693359h-4.7426758
						v-2.0693359h1.1855469v-7.3027325h-1.1855469V24.6854382z M53.2750969,26.7625866v2.7714844h1.5029297
						c0.2871094,0,0.5449219-0.0263672,0.7739258-0.0791016s0.4257813-0.1357422,0.5893555-0.2490234
						s0.2895508-0.2558594,0.3774414-0.4267578c0.0878906-0.171875,0.1323242-0.375,0.1323242-0.6123047
						c0-0.4423828-0.1586914-0.7880859-0.4760742-1.0341797c-0.3168945-0.2470703-0.7827148-0.3701172-1.3969727-0.3701172
						H53.2750969z"/>
					<path style="fill:#FFFFFF;" d="M66.3175812,36.3387566c-0.5185547,0-1.0146484-0.0703125-1.487793-0.2119141
						c-0.4731445-0.140625-0.9150429-0.3398438-1.3251991-0.5966797c-0.4106445-0.2568359-0.7832031-0.5644531-1.1176758-0.9248047
						c-0.3349609-0.3603516-0.6206055-0.7597656-0.8574219-1.2011719c-0.2368164-0.4404297-0.4204102-0.9121094-0.5512695-1.4160137
						c-0.1308594-0.5029297-0.1962891-1.0292969-0.1962891-1.578125s0.0654297-1.0761719,0.1962891-1.5820313
						s0.3144531-0.9794922,0.5512695-1.4199219s0.5224609-0.8408203,0.8574219-1.2011719
						c0.3344727-0.359375,0.7070313-0.6679688,1.1176758-0.9248047c0.4101563-0.2568359,0.8520546-0.4560547,1.3251991-0.5966797
						s0.9692383-0.2119141,1.487793-0.2119141s1.015625,0.0712891,1.4916992,0.2119141
						c0.4755859,0.140625,0.918457,0.3398438,1.3291016,0.5966797c0.4101563,0.2568359,0.7827148,0.5654297,1.1176758,0.9248047
						c0.3349609,0.3603516,0.621582,0.7607422,0.8608398,1.2011719s0.4243164,0.9140625,0.5551758,1.4199219
						s0.1962891,1.0332031,0.1962891,1.5820313c0,0.5439453-0.0654297,1.0683594-0.1962891,1.5742188
						c-0.1308594,0.506834-0.315918,0.9794903-0.5551758,1.41992c-0.2392578,0.4414063-0.5258789,0.8408203-0.8608398,1.2011719
						s-0.7075195,0.6679688-1.1176758,0.9248047c-0.4106445,0.2568359-0.8535156,0.4560547-1.3291016,0.5966797
						C67.3332062,36.2684441,66.8361359,36.3387566,66.3175812,36.3387566z M66.3175812,33.9666862
						c0.4379883,0,0.8393555-0.09375,1.2045898-0.2832031c0.3652344-0.1884766,0.6782227-0.4453125,0.9404297-0.7695313
						c0.2617188-0.3251953,0.4643555-0.703125,0.6079102-1.1328106c0.1435547-0.4306641,0.215332-0.8876953,0.215332-1.3710938
						c0-0.4882813-0.0732422-0.9492188-0.2192383-1.3818359c-0.1459961-0.4335938-0.3510742-0.8125-0.6157227-1.1367188
						c-0.2641602-0.3251953-0.5776367-0.5820313-0.9399414-0.7705078c-0.362793-0.1884766-0.7602539-0.2832031-1.1933594-0.2832031
						s-0.8305664,0.0947266-1.1933594,0.2832031c-0.3623047,0.1884766-0.6748047,0.4453125-0.9365234,0.7705078
						c-0.2617226,0.3242188-0.4668007,0.703125-0.6152382,1.1367188c-0.1484375,0.4326172-0.2226563,0.8935547-0.2226563,1.3818359
						c0,0.4833984,0.0742188,0.9404297,0.2226563,1.3710938c0.1484375,0.4296856,0.3535156,0.8076153,0.6152382,1.1328106
						c0.2617188,0.3242188,0.5742188,0.5810547,0.9365234,0.7695313
						C65.4870148,33.8729362,65.8844757,33.9666862,66.3175812,33.9666862z"/>
					<path style="fill:#FFFFFF;" d="M73.3717804,24.6854382h4.9013672v2.0693359h-1.2084961v7.310545h1.2084961v2.0693359
						h-4.9013672v-2.0693359h1.1855469v-7.310545h-1.1855469V24.6854382z"/>
				</g>
			</g>
		</g>
	</g>
</g>
<g id="grey_copy_6">
	<g>
		<g>
			<text transform="matrix(1 0 0 1 -158.8899384 18.6654491)"><tspan x="0" y="0" style="fill:#898989; font-family:'Roboto-Light'; font-size:13.7773705;">Designed </tspan><tspan x="59.7446289" y="0" style="fill:#898989; font-family:'Roboto-Light'; font-size:13.7773705;">b</tspan><tspan x="67.3393555" y="0" style="fill:#898989; font-family:'Roboto-Light'; font-size:13.7773705;">y </tspan></text>
		</g>
	</g>
	<g>
		<path style="fill:#E54013;" d="M-170.5562744,15.8116541l-6.6359711,3.831315v0.0040798v0.0038185v16.0301247l6.6359711,3.8308182
			v0.0004959l6.635437-3.8313141V19.6508675v-0.0078983L-170.5562744,15.8116541z"/>
		<path style="fill:#E54013;" d="M-183.8269653,20.6282578l-6.6357117,3.8312893v0.003582v0.0040798v11.2137833l6.6352234,3.8308182
			l0.0004883,0.0004959l6.6347198-3.8313141V24.4672089V24.463129v-0.003582L-183.8269653,20.6282578z"/>
		<polygon style="fill:#E54013;" points="-197.098114,25.2962151 -203.7335968,29.1275311 -203.7335968,29.1362133 
			-203.7335968,29.1362133 -203.7335968,35.6809921 -197.098114,39.5118103 -197.098114,39.5123062 -190.462677,35.6809921 
			-190.462677,29.1362133 -190.462677,29.1275311 		"/>
		<polygon style="fill:#F26F51;" points="-203.7335968,29.1275311 -203.7335968,29.1362133 -197.098114,32.9664803 
			-190.462677,29.1362133 -190.462677,29.1275311 -197.098114,25.2962151 		"/>
		
			<linearGradient id="SVGID_7_" gradientUnits="userSpaceOnUse" x1="-165.5826569" y1="36.7137527" x2="-163.4986115" y2="40.2235222">
			<stop  offset="0" style="stop-color:#000000"/>
			<stop  offset="1" style="stop-color:#000000;stop-opacity:0"/>
		</linearGradient>
		<polygon style="opacity:0.2;fill:url(#SVGID_7_);" points="-170.5562744,39.5077057 -170.5562744,39.5163879 
			-163.9203033,43.3472061 -157.2858734,39.5163879 -157.2858734,39.5077057 -163.9203033,35.6763916 		"/>
		
			<linearGradient id="SVGID_8_" gradientUnits="userSpaceOnUse" x1="-178.8535461" y1="36.7135887" x2="-176.7693787" y2="40.2235641">
			<stop  offset="0" style="stop-color:#000000"/>
			<stop  offset="1" style="stop-color:#000000;stop-opacity:0"/>
		</linearGradient>
		<polygon style="opacity:0.2;fill:url(#SVGID_8_);" points="-183.8274536,39.5077057 -183.8274536,39.5163879 
			-177.1912231,43.3472061 -170.5562744,39.5163879 -170.5562744,39.5077057 -177.1912231,35.6763916 		"/>
		
			<linearGradient id="SVGID_9_" gradientUnits="userSpaceOnUse" x1="-192.1243134" y1="36.7136459" x2="-190.0401764" y2="40.2235489">
			<stop  offset="0" style="stop-color:#000000"/>
			<stop  offset="1" style="stop-color:#000000;stop-opacity:0"/>
		</linearGradient>
		<polygon style="opacity:0.2;fill:url(#SVGID_9_);" points="-197.098114,39.5077057 -197.098114,39.5163879 
			-190.4621429,43.3472061 -183.8271942,39.5163879 -183.8271942,39.5077057 -190.4621429,35.6763916 		"/>
		<polygon style="fill:#F45D34;" points="-203.7335968,29.1362133 -203.7335968,35.6809921 -197.098114,39.5118103 
			-197.098114,32.9664803 		"/>
		<polygon style="fill:#E54013;" points="-197.098114,32.9664803 -197.098114,32.9664803 -197.098114,39.5118103 
			-197.098114,39.5123062 -190.462677,35.6809921 -190.462677,29.1362133 		"/>
		<polygon style="fill:#F26F51;" points="-190.462677,24.459547 -190.462677,24.4672089 -183.8269653,28.2990475 
			-177.1922455,24.4672089 -177.1922455,24.459547 -183.8269653,20.6282578 		"/>
		<polygon style="fill:#F45D34;" points="-190.462677,24.463129 -190.462677,35.6809921 -183.8274536,39.5118103 
			-183.8274536,28.2939472 		"/>
		<polygon style="fill:#E54013;" points="-183.8269653,28.2939472 -183.8274536,32.9664803 -183.8274536,39.5118103 
			-183.8269653,39.5123062 -177.1922455,35.6809921 -177.1922455,24.463129 		"/>
		<polygon style="fill:#F26F51;" points="-177.1920166,19.6429691 -177.1920166,19.6508675 -170.5560455,23.4824448 
			-163.9205627,19.6508675 -163.9205627,19.6429691 -170.5560455,15.8116541 		"/>
		<polygon style="fill:#F45D34;" points="-177.1922455,19.647049 -177.1922455,35.6809921 -170.5562744,39.5118103 
			-170.5562744,23.4773445 		"/>
		<polygon style="fill:#E54013;" points="-170.5562744,23.4824448 -170.5562744,32.9664803 -170.5562744,39.5118103 
			-170.5562744,39.5123062 -163.9208374,35.6809921 -163.9208374,19.6429691 		"/>
		<path style="fill:#FFFFFF;" d="M-179.6268616,8.3675203c0.0181274,0.2041655,0.2405701,0.3507719,0.4967194,0.3276539
			l1.9320068-0.1746931l2.492569,7.6633892c0.0569611,0.1716328,0.2602539,0.2819405,0.4837189,0.2619076l6.4919281-0.586894
			c0.2563934-0.0232229,0.4487152-0.2070942,0.430069-0.4116783c-0.0183868-0.2040348-0.2405701-0.3505106-0.496994-0.327261
			l-6.105011,0.551877l-0.4706726-1.4474134l7.3694458-0.6662903c0.1871948-0.0169725,0.3478088-0.1215525,0.4075928-0.2659883
			l1.9176941-4.64293c0.0492706-0.1193819,0.0219727-0.2487545-0.0735626-0.3433704
			c-0.0952454-0.0947475-0.2459259-0.1435204-0.4006958-0.1296082l-10.8682251,0.9825945l-0.3739014-1.1505136
			c-0.0564423-0.171607-0.260498-0.2820711-0.483963-0.2618823l-2.3189087,0.2096577
			C-179.4532013,7.9791951-179.6455078,8.1633282-179.6268616,8.3675203z M-169.0581818,11.5091391l2.3186493-0.209527
			l-0.6394806,1.5476265l-1.5456085,0.1397018L-169.0581818,11.5091391z M-169.258667,9.2923985l3.4778595-0.314395
			l-0.6394806,1.5475216l-2.7045593,0.2446747L-169.258667,9.2923985z M-171.8403778,11.7606916l1.8548889-0.1676579
			l0.1335449,1.4778013l-1.8546143,0.1677885L-171.8403778,11.7606916z M-172.0405884,9.5439501l1.8543549-0.1676579
			l0.134079,1.4778013l-1.8548737,0.1676579L-172.0405884,9.5439501z M-175.0789337,12.0535107l2.3109894-0.2089252
			l0.1338196,1.4778013l-1.9733734,0.1784067L-175.0789337,12.0535107z M-175.7848206,9.8824568l2.816391-0.254612
			l0.1338196,1.4778013l-2.4797974,0.2240934L-175.7848206,9.8824568z"/>
		
			<ellipse transform="matrix(-0.0900756 -0.9959349 0.9959349 -0.0900756 -202.2550507 -148.404541)" style="fill:#FFFFFF;" cx="-168.9215698" cy="18.1917248" rx="1.3297098" ry="1.3967948"/>
		
			<ellipse transform="matrix(-0.0899824 -0.9959434 0.9959434 -0.0899824 -206.6168823 -151.7366333)" style="fill:#FFFFFF;" cx="-172.6311646" cy="18.527113" rx="1.3296329" ry="1.3969008"/>
		<g>
			<text transform="matrix(1 0 0 1 -126.0001068 35.9458275)"><tspan x="0" y="0" style="fill:#E2E2E2; font-family:'Roboto-Light'; font-size:15.7850103;">Escala</tspan><tspan x="45.8671875" y="0" style="fill:#E2E2E2; font-family:'Roboto-Light'; font-size:15.7850103;">t</tspan><tspan x="50.9545898" y="0" style="fill:#E2E2E2; font-family:'Roboto-Light'; font-size:15.7850103;">or</tspan></text>
			
				<text transform="matrix(1 0 0 1 -158.5967865 36.134304)" style="fill:#FFFFFF; font-family:'Arvo-Bold'; font-size:15.4669304;">ROI</text>
		</g>
	</g>
</g>
<g id="grey_copy_5">
	<g>
		<g>
			<text transform="matrix(1 0 0 1 -366.8899536 18.6654491)"><tspan x="0" y="0" style="fill:#898989; font-family:'Roboto-Light'; font-size:13.7773705;">P</tspan><tspan x="8.4360352" y="0" style="fill:#898989; font-family:'Roboto-Light'; font-size:13.7773705;">owe</tspan><tspan x="33.6293945" y="0" style="fill:#898989; font-family:'Roboto-Light'; font-size:13.7773705;">r</tspan><tspan x="38.1904297" y="0" style="fill:#898989; font-family:'Roboto-Light'; font-size:13.7773705;">ed </tspan><tspan x="56.3071289" y="0" style="fill:#898989; font-family:'Roboto-Light'; font-size:13.7773705;">b</tspan><tspan x="63.9018555" y="0" style="fill:#898989; font-family:'Roboto-Light'; font-size:13.7773705;">y </tspan></text>
		</g>
	</g>
	<g>
		<path style="fill:#E54013;" d="M-378.8226929,15.8116541l-6.6359558,3.831315v0.0040798v0.0038185v16.0301247l6.6359558,3.8308182
			v0.0004959l6.6354675-3.8313141V19.6508675v-0.0078983L-378.8226929,15.8116541z"/>
		<path style="fill:#E54013;" d="M-392.0933838,20.6282578l-6.6356812,3.8312893v0.003582v0.0040798v11.2137833l6.6351929,3.8308182
			l0.0004883,0.0004959l6.6347351-3.8313141V24.4672089V24.463129v-0.003582L-392.0933838,20.6282578z"/>
		<polygon style="fill:#E54013;" points="-405.3645325,25.2962151 -412,29.1275311 -412,29.1362133 -412,29.1362133 
			-412,35.6809921 -405.3645325,39.5118103 -405.3645325,39.5123062 -398.7290649,35.6809921 -398.7290649,29.1362133 
			-398.7290649,29.1275311 		"/>
		<polygon style="fill:#F26F51;" points="-412,29.1275311 -412,29.1362133 -405.3645325,32.9664803 -398.7290649,29.1362133 
			-398.7290649,29.1275311 -405.3645325,25.2962151 		"/>
		
			<linearGradient id="SVGID_10_" gradientUnits="userSpaceOnUse" x1="-373.8490601" y1="36.7137527" x2="-371.7650146" y2="40.2235222">
			<stop  offset="0" style="stop-color:#000000"/>
			<stop  offset="1" style="stop-color:#000000;stop-opacity:0"/>
		</linearGradient>
		<polygon style="opacity:0.2;fill:url(#SVGID_10_);" points="-378.8226929,39.5077057 -378.8226929,39.5163879 
			-372.1867065,43.3472061 -365.5522766,39.5163879 -365.5522766,39.5077057 -372.1867065,35.6763916 		"/>
		
			<linearGradient id="SVGID_11_" gradientUnits="userSpaceOnUse" x1="-387.1199646" y1="36.7135887" x2="-385.0357971" y2="40.2235641">
			<stop  offset="0" style="stop-color:#000000"/>
			<stop  offset="1" style="stop-color:#000000;stop-opacity:0"/>
		</linearGradient>
		<polygon style="opacity:0.2;fill:url(#SVGID_11_);" points="-392.0938721,39.5077057 -392.0938721,39.5163879 
			-385.4576416,43.3472061 -378.8226929,39.5163879 -378.8226929,39.5077057 -385.4576416,35.6763916 		"/>
		
			<linearGradient id="SVGID_12_" gradientUnits="userSpaceOnUse" x1="-400.3907166" y1="36.7136459" x2="-398.3065796" y2="40.2235489">
			<stop  offset="0" style="stop-color:#000000"/>
			<stop  offset="1" style="stop-color:#000000;stop-opacity:0"/>
		</linearGradient>
		<polygon style="opacity:0.2;fill:url(#SVGID_12_);" points="-405.3645325,39.5077057 -405.3645325,39.5163879 
			-398.7285461,43.3472061 -392.0935974,39.5163879 -392.0935974,39.5077057 -398.7285461,35.6763916 		"/>
		<polygon style="fill:#F45D34;" points="-412,29.1362133 -412,35.6809921 -405.3645325,39.5118103 -405.3645325,32.9664803 		"/>
		<polygon style="fill:#E54013;" points="-405.3645325,32.9664803 -405.3645325,32.9664803 -405.3645325,39.5118103 
			-405.3645325,39.5123062 -398.7290649,35.6809921 -398.7290649,29.1362133 		"/>
		<polygon style="fill:#F26F51;" points="-398.7290649,24.459547 -398.7290649,24.4672089 -392.0933838,28.2990475 
			-385.4586487,24.4672089 -385.4586487,24.459547 -392.0933838,20.6282578 		"/>
		<polygon style="fill:#F45D34;" points="-398.7290649,24.463129 -398.7290649,35.6809921 -392.0938721,39.5118103 
			-392.0938721,28.2939472 		"/>
		<polygon style="fill:#E54013;" points="-392.0933838,28.2939472 -392.0938721,32.9664803 -392.0938721,39.5118103 
			-392.0933838,39.5123062 -385.4586487,35.6809921 -385.4586487,24.463129 		"/>
		<polygon style="fill:#F26F51;" points="-385.4584045,19.6429691 -385.4584045,19.6508675 -378.8224487,23.4824448 
			-372.1869812,19.6508675 -372.1869812,19.6429691 -378.8224487,15.8116541 		"/>
		<polygon style="fill:#F45D34;" points="-385.4586487,19.647049 -385.4586487,35.6809921 -378.8226929,39.5118103 
			-378.8226929,23.4773445 		"/>
		<polygon style="fill:#E54013;" points="-378.8226929,23.4824448 -378.8226929,32.9664803 -378.8226929,39.5118103 
			-378.8226929,39.5123062 -372.1872253,35.6809921 -372.1872253,19.6429691 		"/>
		<path style="fill:#FFFFFF;" d="M-387.8932495,8.3675203c0.0180969,0.2041655,0.2405396,0.3507719,0.4967041,0.3276539
			l1.9320068-0.1746931l2.4925537,7.6633892c0.0569763,0.1716328,0.2602539,0.2819405,0.4837341,0.2619076l6.4919128-0.586894
			c0.2564087-0.0232229,0.4487305-0.2070942,0.4300842-0.4116783c-0.0184021-0.2040348-0.2405701-0.3505106-0.4969788-0.327261
			l-6.1050415,0.551877l-0.4706726-1.4474134l7.3694458-0.6662903c0.1871948-0.0169725,0.3478394-0.1215525,0.4076233-0.2659883
			l1.9176941-4.64293c0.0492554-0.1193819,0.0219421-0.2487545-0.0735779-0.3433704
			c-0.0952454-0.0947475-0.2459412-0.1435204-0.4006958-0.1296082l-10.8682251,0.9825945l-0.3739014-1.1505136
			c-0.056427-0.171607-0.260498-0.2820711-0.4839783-0.2618823l-2.3189087,0.2096577
			C-387.7196045,7.9791951-387.9118958,8.1633282-387.8932495,8.3675203z M-377.324585,11.5091391l2.3186646-0.209527
			l-0.6394958,1.5476265l-1.5456238,0.1397018L-377.324585,11.5091391z M-377.5250549,9.2923985l3.4778442-0.314395
			l-0.6394958,1.5475216l-2.7045288,0.2446747L-377.5250549,9.2923985z M-380.106781,11.7606916l1.8548889-0.1676579
			l0.1335449,1.4778013l-1.8546143,0.1677885L-380.106781,11.7606916z M-380.3070068,9.5439501l1.8543701-0.1676579
			l0.1340637,1.4778013l-1.8548584,0.1676579L-380.3070068,9.5439501z M-383.3453369,12.0535107l2.3109741-0.2089252
			l0.1338196,1.4778013l-1.9733582,0.1784067L-383.3453369,12.0535107z M-384.051239,9.8824568l2.8164063-0.254612
			l0.1338196,1.4778013l-2.4797974,0.2240934L-384.051239,9.8824568z"/>
		
			<ellipse transform="matrix(-0.0900756 -0.9959349 0.9959349 -0.0900756 -429.281189 -355.8243103)" style="fill:#FFFFFF;" cx="-377.1879578" cy="18.1917248" rx="1.3297098" ry="1.3967948"/>
		
			<ellipse transform="matrix(-0.0899824 -0.9959434 0.9959434 -0.0899824 -433.6235962 -359.1581726)" style="fill:#FFFFFF;" cx="-380.897583" cy="18.527113" rx="1.3296329" ry="1.3969008"/>
		<g>
			<text transform="matrix(1 0 0 1 -334.2665405 35.9458275)"><tspan x="0" y="0" style="fill:#E2E2E2; font-family:'Roboto-Light'; font-size:15.7850103;">Escala</tspan><tspan x="45.8671875" y="0" style="fill:#E2E2E2; font-family:'Roboto-Light'; font-size:15.7850103;">t</tspan><tspan x="50.9545898" y="0" style="fill:#E2E2E2; font-family:'Roboto-Light'; font-size:15.7850103;">or</tspan></text>
			
				<text transform="matrix(1 0 0 1 -366.8632202 36.134304)" style="fill:#FFFFFF; font-family:'Arvo-Bold'; font-size:15.4669304;">ROI</text>
		</g>
	</g>
</g>
<g id="grey_copy_3">
	<g>
		<path style="fill:#E54013;" d="M245.2438507-66.8246613l-6.6359711,3.8313103v0.0040817v0.0038185v16.0301247l6.6359711,3.8308182
			v0.0004959l6.635437-3.8313141v-16.0301247v-0.0079002L245.2438507-66.8246613z"/>
		<path style="fill:#E54013;" d="M231.9731598-62.0080605l-6.6357117,3.8312874v0.003582v0.0040817v11.2137833l6.6352081,3.8308182
			l0.0005035,0.0004959l6.6347198-3.8313141v-11.2137833v-0.0040817v-0.003582L231.9731598-62.0080605z"/>
		<polygon style="fill:#E54013;" points="218.7019958,-57.3401031 212.0665283,-53.5087891 212.0665283,-53.5001068 
			212.0665283,-53.5001068 212.0665283,-46.9553261 218.7019958,-43.1245079 218.7019958,-43.124012 225.3374481,-46.9553261 
			225.3374481,-53.5001068 225.3374481,-53.5087891 		"/>
		<polygon style="fill:#F26F51;" points="212.0665283,-53.5087891 212.0665283,-53.5001068 218.7019958,-49.669838 
			225.3374481,-53.5001068 225.3374481,-53.5087891 218.7019958,-57.3401031 		"/>
		
			<linearGradient id="SVGID_13_" gradientUnits="userSpaceOnUse" x1="250.217453" y1="-45.9225655" x2="252.3014984" y2="-42.412796">
			<stop  offset="0" style="stop-color:#000000"/>
			<stop  offset="1" style="stop-color:#000000;stop-opacity:0"/>
		</linearGradient>
		<polygon style="opacity:0.2;fill:url(#SVGID_13_);" points="245.2438507,-43.1286125 245.2438507,-43.1199303 
			251.8798065,-39.2891121 258.5142517,-43.1199303 258.5142517,-43.1286125 251.8798065,-46.9599304 		"/>
		
			<linearGradient id="SVGID_14_" gradientUnits="userSpaceOnUse" x1="236.9465637" y1="-45.9227295" x2="239.0307465" y2="-42.4127541">
			<stop  offset="0" style="stop-color:#000000"/>
			<stop  offset="1" style="stop-color:#000000;stop-opacity:0"/>
		</linearGradient>
		<polygon style="opacity:0.2;fill:url(#SVGID_14_);" points="231.9726563,-43.1286125 231.9726563,-43.1199303 
			238.6088867,-39.2891121 245.2438507,-43.1199303 245.2438507,-43.1286125 238.6088867,-46.9599304 		"/>
		
			<linearGradient id="SVGID_15_" gradientUnits="userSpaceOnUse" x1="223.6758118" y1="-45.9226761" x2="225.7599487" y2="-42.4127693">
			<stop  offset="0" style="stop-color:#000000"/>
			<stop  offset="1" style="stop-color:#000000;stop-opacity:0"/>
		</linearGradient>
		<polygon style="opacity:0.2;fill:url(#SVGID_15_);" points="218.7019958,-43.1286125 218.7019958,-43.1199303 
			225.3379669,-39.2891121 231.9729156,-43.1199303 231.9729156,-43.1286125 225.3379669,-46.9599304 		"/>
		<polygon style="fill:#F45D34;" points="212.0665283,-53.5001068 212.0665283,-46.9553261 218.7019958,-43.1245079 
			218.7019958,-49.669838 		"/>
		<polygon style="fill:#E54013;" points="218.7019958,-49.669838 218.7019958,-49.669838 218.7019958,-43.1245079 
			218.7019958,-43.124012 225.3374481,-46.9553261 225.3374481,-53.5001068 		"/>
		<polygon style="fill:#F26F51;" points="225.3374481,-58.1767731 225.3374481,-58.1691093 231.9731598,-54.3372726 
			238.6078796,-58.1691093 238.6078796,-58.1767731 231.9731598,-62.0080605 		"/>
		<polygon style="fill:#F45D34;" points="225.3374481,-58.1731911 225.3374481,-46.9553261 231.9726563,-43.1245079 
			231.9726563,-54.3423729 		"/>
		<polygon style="fill:#E54013;" points="231.9731598,-54.3423729 231.9726563,-49.669838 231.9726563,-43.1245079 
			231.9731598,-43.124012 238.6078796,-46.9553261 238.6078796,-58.1731911 		"/>
		<polygon style="fill:#F26F51;" points="238.6081085,-62.993351 238.6081085,-62.9854507 245.2440796,-59.1538734 
			251.8795471,-62.9854507 251.8795471,-62.993351 245.2440796,-66.8246613 		"/>
		<polygon style="fill:#F45D34;" points="238.6078796,-62.9892693 238.6078796,-46.9553261 245.2438507,-43.1245079 
			245.2438507,-59.1589737 		"/>
		<polygon style="fill:#E54013;" points="245.2438507,-59.1538734 245.2438507,-49.669838 245.2438507,-43.1245079 
			245.2438507,-43.124012 251.8792877,-46.9553261 251.8792877,-62.993351 		"/>
		<path style="fill:#3C3C3B;" d="M236.1732635-74.2687988c0.0181274,0.2041626,0.2405701,0.350769,0.4967194,0.327652
			l1.9320068-0.1746902l2.4925537,7.6633911c0.0569611,0.1716309,0.2602692,0.2819366,0.4837341,0.2619019l6.4919281-0.5868912
			c0.2563934-0.0232239,0.4487152-0.2070923,0.430069-0.4116745c-0.0183868-0.2040405-0.2405701-0.3505173-0.496994-0.3272629
			l-6.105011,0.5518723l-0.4706726-1.4474106l7.3694458-0.6662903c0.1871796-0.0169754,0.3478088-0.1215515,0.4075928-0.2659912
			l1.9176941-4.6429291c0.0492706-0.1193771,0.0219727-0.2487488-0.0735626-0.3433685
			c-0.0952454-0.0947495-0.2459259-0.1435165-0.4006958-0.1296082l-10.8682404,0.9825974l-0.3738861-1.1505127
			c-0.0564423-0.171608-0.260498-0.282074-0.483963-0.2618866l-2.318924,0.2096558
			C236.3469086-74.6571274,236.1546173-74.4729919,236.1732635-74.2687988z M246.7419434-71.127182l2.3186493-0.2095261
			l-0.6394806,1.5476303l-1.5456238,0.1397018L246.7419434-71.127182z M246.5414581-73.3439178l3.4778442-0.3143997
			l-0.6394806,1.5475235l-2.7045441,0.2446747L246.5414581-73.3439178z M243.9597473-70.8756256l1.8548737-0.1676559
			l0.1335602,1.4777985l-1.8546143,0.1677856L243.9597473-70.8756256z M243.7595367-73.0923691l1.8543549-0.1676559
			l0.134079,1.4777985l-1.8548889,0.1676559L243.7595367-73.0923691z M240.7211914-70.5828094l2.3109894-0.2089233
			l0.1338196,1.4777985l-1.9733887,0.1784058L240.7211914-70.5828094z M240.0153046-72.7538605l2.816391-0.2546158
			l0.1338196,1.4778061l-2.4797974,0.2240906L240.0153046-72.7538605z"/>
		
			<ellipse transform="matrix(-0.0900756 -0.9959349 0.9959349 -0.0900756 333.2989197 175.6254883)" style="fill:#3C3C3B;" cx="246.8785553" cy="-64.4445953" rx="1.3297098" ry="1.3967948"/>
		
			<ellipse transform="matrix(-0.0899824 -0.9959434 0.9959434 -0.0899824 328.8990173 172.3045959)" style="fill:#3C3C3B;" cx="243.1689606" cy="-64.1092072" rx="1.3296329" ry="1.3969008"/>
	</g>
	<g>
		<g>
			<text transform="matrix(1 0 0 1 289.7999878 -46.6904984)"><tspan x="0" y="0" style="fill:#3C3C3B; font-family:'Roboto-Light'; font-size:15.7850103;">Escala</tspan><tspan x="45.8671875" y="0" style="fill:#3C3C3B; font-family:'Roboto-Light'; font-size:15.7850103;">t</tspan><tspan x="50.9545898" y="0" style="fill:#3C3C3B; font-family:'Roboto-Light'; font-size:15.7850103;">or</tspan></text>
			
				<text transform="matrix(1 0 0 1 257.2033081 -46.5020218)" style="fill:#3C3C3B; font-family:'Arvo-Bold'; font-size:15.4669304;">ROI</text>
		</g>
		<g>
			<text transform="matrix(1 0 0 1 257.2033081 -63.970871)"><tspan x="0" y="0" style="fill:#898989; font-family:'Roboto-Light'; font-size:13.7773705;">Optimised </tspan><tspan x="65.112793" y="0" style="fill:#898989; font-family:'Roboto-Light'; font-size:13.7773705;">b</tspan><tspan x="72.7080078" y="0" style="fill:#898989; font-family:'Roboto-Light'; font-size:13.7773705;">y </tspan></text>
		</g>
	</g>
</g>
<g id="grey_copy_2">
	<g>
		<path style="fill:#E54013;" d="M36.7692947-66.8246613l-6.6359711,3.8313103v0.0040817v0.0038185v16.0301247l6.6359711,3.8308182
			v0.0004959l6.6354485-3.8313141v-16.0301247v-0.0079002L36.7692947-66.8246613z"/>
		<path style="fill:#E54013;" d="M23.4986095-62.0080605l-6.6357098,3.8312874v0.003582v0.0040817v11.2137833l6.6352119,3.8308182
			l0.0004978,0.0004959l6.6347141-3.8313141v-11.2137833v-0.0040817v-0.003582L23.4986095-62.0080605z"/>
		<polygon style="fill:#E54013;" points="10.2274523,-57.3401031 3.591979,-53.5087891 3.591979,-53.5001068 3.591979,-53.5001068 
			3.591979,-46.9553261 10.2274523,-43.1245079 10.2274523,-43.124012 16.8628998,-46.9553261 16.8628998,-53.5001068 
			16.8628998,-53.5087891 		"/>
		<polygon style="fill:#F26F51;" points="3.591979,-53.5087891 3.591979,-53.5001068 10.2274523,-49.669838 16.8628998,-53.5001068 
			16.8628998,-53.5087891 10.2274523,-57.3401031 		"/>
		
			<linearGradient id="SVGID_16_" gradientUnits="userSpaceOnUse" x1="41.7429123" y1="-45.9225655" x2="43.8269577" y2="-42.412796">
			<stop  offset="0" style="stop-color:#000000"/>
			<stop  offset="1" style="stop-color:#000000;stop-opacity:0"/>
		</linearGradient>
		<polygon style="opacity:0.2;fill:url(#SVGID_16_);" points="36.7692947,-43.1286125 36.7692947,-43.1199303 
			43.4052658,-39.2891121 50.0396919,-43.1199303 50.0396919,-43.1286125 43.4052658,-46.9599304 		"/>
		
			<linearGradient id="SVGID_17_" gradientUnits="userSpaceOnUse" x1="28.4720211" y1="-45.9227295" x2="30.5561924" y2="-42.4127541">
			<stop  offset="0" style="stop-color:#000000"/>
			<stop  offset="1" style="stop-color:#000000;stop-opacity:0"/>
		</linearGradient>
		<polygon style="opacity:0.2;fill:url(#SVGID_17_);" points="23.4981117,-43.1286125 23.4981117,-43.1199303 
			30.1343441,-39.2891121 36.7692947,-43.1199303 36.7692947,-43.1286125 30.1343441,-46.9599304 		"/>
		
			<linearGradient id="SVGID_18_" gradientUnits="userSpaceOnUse" x1="15.2012644" y1="-45.9226761" x2="17.2853928" y2="-42.4127693">
			<stop  offset="0" style="stop-color:#000000"/>
			<stop  offset="1" style="stop-color:#000000;stop-opacity:0"/>
		</linearGradient>
		<polygon style="opacity:0.2;fill:url(#SVGID_18_);" points="10.2274523,-43.1286125 10.2274523,-43.1199303 
			16.8634224,-39.2891121 23.498373,-43.1199303 23.498373,-43.1286125 16.8634224,-46.9599304 		"/>
		<polygon style="fill:#F45D34;" points="3.591979,-53.5001068 3.591979,-46.9553261 10.2274523,-43.1245079 10.2274523,-49.669838 
					"/>
		<polygon style="fill:#E54013;" points="10.2274523,-49.669838 10.2274523,-49.669838 10.2274523,-43.1245079 
			10.2274523,-43.124012 16.8628998,-46.9553261 16.8628998,-53.5001068 		"/>
		<polygon style="fill:#F26F51;" points="16.8628998,-58.1767731 16.8628998,-58.1691093 23.4986095,-54.3372726 
			30.1333237,-58.1691093 30.1333237,-58.1767731 23.4986095,-62.0080605 		"/>
		<polygon style="fill:#F45D34;" points="16.8628998,-58.1731911 16.8628998,-46.9553261 23.4981117,-43.1245079 
			23.4981117,-54.3423729 		"/>
		<polygon style="fill:#E54013;" points="23.4986095,-54.3423729 23.4981117,-49.669838 23.4981117,-43.1245079 
			23.4986095,-43.124012 30.1333237,-46.9553261 30.1333237,-58.1731911 		"/>
		<polygon style="fill:#F26F51;" points="30.1335602,-62.993351 30.1335602,-62.9854507 36.7695313,-59.1538734 
			43.4050026,-62.9854507 43.4050026,-62.993351 36.7695313,-66.8246613 		"/>
		<polygon style="fill:#F45D34;" points="30.1333237,-62.9892693 30.1333237,-46.9553261 36.7692947,-43.1245079 
			36.7692947,-59.1589737 		"/>
		<polygon style="fill:#E54013;" points="36.7692947,-59.1538734 36.7692947,-49.669838 36.7692947,-43.1245079 
			36.7692947,-43.124012 43.4047432,-46.9553261 43.4047432,-62.993351 		"/>
		<path style="fill:#3C3C3B;" d="M27.698719-74.2687988c0.0181179,0.2041626,0.2405643,0.350769,0.4967194,0.327652
			l1.9320011-0.1746902l2.4925632,7.6633911c0.0569572,0.1716309,0.2602615,0.2819366,0.4837303,0.2619019l6.4919243-0.5868912
			c0.2563896-0.0232239,0.4487114-0.2070923,0.4300613-0.4116745c-0.018383-0.2040405-0.2405663-0.3505173-0.4969864-0.3272629
			l-6.105011,0.5518723l-0.4706802-1.4474106l7.3694458-0.6662903c0.1871948-0.0169754,0.3478165-0.1215515,0.4076004-0.2659912
			l1.9176979-4.6429291c0.0492668-0.1193771,0.021965-0.2487488-0.0735664-0.3433685
			c-0.0952415-0.0947495-0.2459297-0.1435165-0.4006958-0.1296082l-10.8682365,0.9825974l-0.3738937-1.1505127
			c-0.0564346-0.171608-0.2604961-0.282074-0.4839611-0.2618866l-2.3189163,0.2096558
			C27.872364-74.6571274,27.680069-74.4729919,27.698719-74.2687988z M38.2673912-71.127182l2.3186531-0.2095261
			l-0.6394806,1.5476303l-1.5456161,0.1397018L38.2673912-71.127182z M38.0669098-73.3439178l3.4778519-0.3143997
			l-0.6394806,1.5475235l-2.7045517,0.2446747L38.0669098-73.3439178z M35.485199-70.8756256l1.8548813-0.1676559
			l0.1335564,1.4777985l-1.8546219,0.1677856L35.485199-70.8756256z M35.2849808-73.0923691l1.8543587-0.1676559l0.134079,1.4777985
			l-1.8548813,0.1676559L35.2849808-73.0923691z M32.2466354-70.5828094l2.3109932-0.2089233l0.1338158,1.4777985
			l-1.9733734,0.1784058L32.2466354-70.5828094z M31.5407524-72.7538605l2.8163948-0.2546158l0.1338196,1.4778061
			l-2.4798012,0.2240906L31.5407524-72.7538605z"/>
		
			<ellipse transform="matrix(-0.0900756 -0.9959349 0.9959349 -0.0900756 106.0458908 -32.0015945)" style="fill:#3C3C3B;" cx="38.4040031" cy="-64.4445953" rx="1.3297098" ry="1.3967948"/>
		
			<ellipse transform="matrix(-0.0899824 -0.9959434 0.9959434 -0.0899824 101.6654358 -35.3242416)" style="fill:#3C3C3B;" cx="34.6944084" cy="-64.1092072" rx="1.3296329" ry="1.3969008"/>
	</g>
	<g>
		<g>
			<text transform="matrix(1 0 0 1 81.3254547 -46.6904984)"><tspan x="0" y="0" style="fill:#3C3C3B; font-family:'Roboto-Light'; font-size:15.7850103;">Escala</tspan><tspan x="45.8671875" y="0" style="fill:#3C3C3B; font-family:'Roboto-Light'; font-size:15.7850103;">t</tspan><tspan x="50.9545898" y="0" style="fill:#3C3C3B; font-family:'Roboto-Light'; font-size:15.7850103;">or</tspan></text>
			
				<text transform="matrix(1 0 0 1 48.7287712 -46.5020218)" style="fill:#3C3C3B; font-family:'Arvo-Bold'; font-size:15.4669304;">ROI</text>
		</g>
		<g>
			<text transform="matrix(1 0 0 1 48.7287712 -63.970871)"><tspan x="0" y="0" style="fill:#898989; font-family:'Roboto-Light'; font-size:13.7773705;">D</tspan><tspan x="9.0415039" y="0" style="fill:#898989; font-family:'Roboto-Light'; font-size:13.7773705;">ev</tspan><tspan x="22.7045898" y="0" style="fill:#898989; font-family:'Roboto-Light'; font-size:13.7773705;">eloped </tspan><tspan x="66.3842773" y="0" style="fill:#898989; font-family:'Roboto-Light'; font-size:13.7773705;">b</tspan><tspan x="73.9794922" y="0" style="fill:#898989; font-family:'Roboto-Light'; font-size:13.7773705;">y </tspan></text>
		</g>
	</g>
</g>
<g id="grey_copy">
	<g>
		<path style="fill:#E54013;" d="M-170.849411-66.8246613l-6.6359711,3.8313103v0.0040817v0.0038185v16.0301247l6.6359711,3.8308182
			v0.0004959l6.635437-3.8313141v-16.0301247v-0.0079002L-170.849411-66.8246613z"/>
		<path style="fill:#E54013;" d="M-184.1201019-62.0080605l-6.6357117,3.8312874v0.003582v0.0040817v11.2137833l6.6352081,3.8308182
			l0.0005035,0.0004959l6.6347198-3.8313141v-11.2137833v-0.0040817v-0.003582L-184.1201019-62.0080605z"/>
		<polygon style="fill:#E54013;" points="-197.3912659,-57.3401031 -204.0267334,-53.5087891 -204.0267334,-53.5001068 
			-204.0267334,-53.5001068 -204.0267334,-46.9553261 -197.3912659,-43.1245079 -197.3912659,-43.124012 -190.7558136,-46.9553261 
			-190.7558136,-53.5001068 -190.7558136,-53.5087891 		"/>
		<polygon style="fill:#F26F51;" points="-204.0267334,-53.5087891 -204.0267334,-53.5001068 -197.3912659,-49.669838 
			-190.7558136,-53.5001068 -190.7558136,-53.5087891 -197.3912659,-57.3401031 		"/>
		
			<linearGradient id="SVGID_19_" gradientUnits="userSpaceOnUse" x1="-165.8758087" y1="-45.9225655" x2="-163.7917633" y2="-42.412796">
			<stop  offset="0" style="stop-color:#000000"/>
			<stop  offset="1" style="stop-color:#000000;stop-opacity:0"/>
		</linearGradient>
		<polygon style="opacity:0.2;fill:url(#SVGID_19_);" points="-170.849411,-43.1286125 -170.849411,-43.1199303 
			-164.2134552,-39.2891121 -157.5790253,-43.1199303 -157.5790253,-43.1286125 -164.2134552,-46.9599304 		"/>
		
			<linearGradient id="SVGID_20_" gradientUnits="userSpaceOnUse" x1="-179.146698" y1="-45.9227295" x2="-177.0625153" y2="-42.4127541">
			<stop  offset="0" style="stop-color:#000000"/>
			<stop  offset="1" style="stop-color:#000000;stop-opacity:0"/>
		</linearGradient>
		<polygon style="opacity:0.2;fill:url(#SVGID_20_);" points="-184.1206055,-43.1286125 -184.1206055,-43.1199303 
			-177.484375,-39.2891121 -170.849411,-43.1199303 -170.849411,-43.1286125 -177.484375,-46.9599304 		"/>
		
			<linearGradient id="SVGID_21_" gradientUnits="userSpaceOnUse" x1="-192.41745" y1="-45.9226761" x2="-190.333313" y2="-42.4127693">
			<stop  offset="0" style="stop-color:#000000"/>
			<stop  offset="1" style="stop-color:#000000;stop-opacity:0"/>
		</linearGradient>
		<polygon style="opacity:0.2;fill:url(#SVGID_21_);" points="-197.3912659,-43.1286125 -197.3912659,-43.1199303 
			-190.7552948,-39.2891121 -184.1203461,-43.1199303 -184.1203461,-43.1286125 -190.7552948,-46.9599304 		"/>
		<polygon style="fill:#F45D34;" points="-204.0267334,-53.5001068 -204.0267334,-46.9553261 -197.3912659,-43.1245079 
			-197.3912659,-49.669838 		"/>
		<polygon style="fill:#E54013;" points="-197.3912659,-49.669838 -197.3912659,-49.669838 -197.3912659,-43.1245079 
			-197.3912659,-43.124012 -190.7558136,-46.9553261 -190.7558136,-53.5001068 		"/>
		<polygon style="fill:#F26F51;" points="-190.7558136,-58.1767731 -190.7558136,-58.1691093 -184.1201019,-54.3372726 
			-177.4853821,-58.1691093 -177.4853821,-58.1767731 -184.1201019,-62.0080605 		"/>
		<polygon style="fill:#F45D34;" points="-190.7558136,-58.1731911 -190.7558136,-46.9553261 -184.1206055,-43.1245079 
			-184.1206055,-54.3423729 		"/>
		<polygon style="fill:#E54013;" points="-184.1201019,-54.3423729 -184.1206055,-49.669838 -184.1206055,-43.1245079 
			-184.1201019,-43.124012 -177.4853821,-46.9553261 -177.4853821,-58.1731911 		"/>
		<polygon style="fill:#F26F51;" points="-177.4851532,-62.993351 -177.4851532,-62.9854507 -170.8491821,-59.1538734 
			-164.2137146,-62.9854507 -164.2137146,-62.993351 -170.8491821,-66.8246613 		"/>
		<polygon style="fill:#F45D34;" points="-177.4853821,-62.9892693 -177.4853821,-46.9553261 -170.849411,-43.1245079 
			-170.849411,-59.1589737 		"/>
		<polygon style="fill:#E54013;" points="-170.849411,-59.1538734 -170.849411,-49.669838 -170.849411,-43.1245079 
			-170.849411,-43.124012 -164.213974,-46.9553261 -164.213974,-62.993351 		"/>
		<path style="fill:#3C3C3B;" d="M-179.9199982-74.2687988c0.0181274,0.2041626,0.2405701,0.350769,0.4967194,0.327652
			l1.9320068-0.1746902l2.4925537,7.6633911c0.0569611,0.1716309,0.2602692,0.2819366,0.4837341,0.2619019l6.4919281-0.5868912
			c0.2563934-0.0232239,0.4487152-0.2070923,0.430069-0.4116745c-0.0183868-0.2040405-0.2405701-0.3505173-0.496994-0.3272629
			l-6.105011,0.5518723l-0.4706726-1.4474106l7.3694458-0.6662903c0.1871796-0.0169754,0.3478088-0.1215515,0.4075928-0.2659912
			l1.9176941-4.6429291c0.0492706-0.1193771,0.0219727-0.2487488-0.0735626-0.3433685
			c-0.0952454-0.0947495-0.2459259-0.1435165-0.4006958-0.1296082l-10.8682404,0.9825974l-0.3738861-1.1505127
			c-0.0564423-0.171608-0.260498-0.282074-0.483963-0.2618866l-2.318924,0.2096558
			C-179.7463531-74.6571274-179.9386444-74.4729919-179.9199982-74.2687988z M-169.3513184-71.127182l2.3186493-0.2095261
			l-0.6394806,1.5476303l-1.5456238,0.1397018L-169.3513184-71.127182z M-169.5518036-73.3439178l3.4778442-0.3143997
			l-0.6394806,1.5475235l-2.7045441,0.2446747L-169.5518036-73.3439178z M-172.1335144-70.8756256l1.8548737-0.1676559
			l0.1335602,1.4777985l-1.8546143,0.1677856L-172.1335144-70.8756256z M-172.333725-73.0923691l1.8543549-0.1676559
			l0.134079,1.4777985l-1.8548889,0.1676559L-172.333725-73.0923691z M-175.3720703-70.5828094l2.3109894-0.2089233
			l0.1338196,1.4777985l-1.9733887,0.1784058L-175.3720703-70.5828094z M-176.0779572-72.7538605l2.816391-0.2546158
			l0.1338196,1.4778061l-2.4797974,0.2240906L-176.0779572-72.7538605z"/>
		
			<ellipse transform="matrix(-0.0900756 -0.9959349 0.9959349 -0.0900756 -120.2742004 -238.7763214)" style="fill:#3C3C3B;" cx="-169.2147064" cy="-64.4445953" rx="1.3297098" ry="1.3967948"/>
		
			<ellipse transform="matrix(-0.0899824 -0.9959434 0.9959434 -0.0899824 -124.6353073 -242.1007233)" style="fill:#3C3C3B;" cx="-172.9243011" cy="-64.1092072" rx="1.3296329" ry="1.3969008"/>
	</g>
	<g>
		<g>
			<text transform="matrix(1 0 0 1 -126.2932587 -46.6904984)"><tspan x="0" y="0" style="fill:#3C3C3B; font-family:'Roboto-Light'; font-size:15.7850103;">Escala</tspan><tspan x="45.8671875" y="0" style="fill:#3C3C3B; font-family:'Roboto-Light'; font-size:15.7850103;">t</tspan><tspan x="50.9545898" y="0" style="fill:#3C3C3B; font-family:'Roboto-Light'; font-size:15.7850103;">or</tspan></text>
			
				<text transform="matrix(1 0 0 1 -158.8899384 -46.5020218)" style="fill:#3C3C3B; font-family:'Arvo-Bold'; font-size:15.4669304;">ROI</text>
		</g>
		<g>
			<text transform="matrix(1 0 0 1 -158.8899384 -63.970871)"><tspan x="0" y="0" style="fill:#898989; font-family:'Roboto-Light'; font-size:13.7773705;">Designed </tspan><tspan x="59.7446289" y="0" style="fill:#898989; font-family:'Roboto-Light'; font-size:13.7773705;">b</tspan><tspan x="67.3393555" y="0" style="fill:#898989; font-family:'Roboto-Light'; font-size:13.7773705;">y </tspan></text>
		</g>
	</g>
</g>
<g id="grey">
	<g>
		<path style="fill:#E54013;" d="M-378.8494263-66.8246613l-6.6359558,3.8313103v0.0040817v0.0038185v16.0301247
			l6.6359558,3.8308182v0.0004959l6.6354675-3.8313141v-16.0301247v-0.0079002L-378.8494263-66.8246613z"/>
		<path style="fill:#E54013;" d="M-392.1201172-62.0080605l-6.6356812,3.8312874v0.003582v0.0040817v11.2137833l6.6351929,3.8308182
			l0.0004883,0.0004959l6.6347351-3.8313141v-11.2137833v-0.0040817v-0.003582L-392.1201172-62.0080605z"/>
		<polygon style="fill:#E54013;" points="-405.3912659,-57.3401031 -412.0267334,-53.5087891 -412.0267334,-53.5001068 
			-412.0267334,-53.5001068 -412.0267334,-46.9553261 -405.3912659,-43.1245079 -405.3912659,-43.124012 -398.7557983,-46.9553261 
			-398.7557983,-53.5001068 -398.7557983,-53.5087891 		"/>
		<polygon style="fill:#F26F51;" points="-412.0267334,-53.5087891 -412.0267334,-53.5001068 -405.3912659,-49.669838 
			-398.7557983,-53.5001068 -398.7557983,-53.5087891 -405.3912659,-57.3401031 		"/>
		
			<linearGradient id="SVGID_22_" gradientUnits="userSpaceOnUse" x1="-373.8757935" y1="-45.9225655" x2="-371.791748" y2="-42.412796">
			<stop  offset="0" style="stop-color:#000000"/>
			<stop  offset="1" style="stop-color:#000000;stop-opacity:0"/>
		</linearGradient>
		<polygon style="opacity:0.2;fill:url(#SVGID_22_);" points="-378.8494263,-43.1286125 -378.8494263,-43.1199303 
			-372.2134399,-39.2891121 -365.57901,-43.1199303 -365.57901,-43.1286125 -372.2134399,-46.9599304 		"/>
		
			<linearGradient id="SVGID_23_" gradientUnits="userSpaceOnUse" x1="-387.146698" y1="-45.9227295" x2="-385.0625305" y2="-42.4127541">
			<stop  offset="0" style="stop-color:#000000"/>
			<stop  offset="1" style="stop-color:#000000;stop-opacity:0"/>
		</linearGradient>
		<polygon style="opacity:0.2;fill:url(#SVGID_23_);" points="-392.1206055,-43.1286125 -392.1206055,-43.1199303 
			-385.484375,-39.2891121 -378.8494263,-43.1199303 -378.8494263,-43.1286125 -385.484375,-46.9599304 		"/>
		
			<linearGradient id="SVGID_24_" gradientUnits="userSpaceOnUse" x1="-400.41745" y1="-45.9226761" x2="-398.333313" y2="-42.4127693">
			<stop  offset="0" style="stop-color:#000000"/>
			<stop  offset="1" style="stop-color:#000000;stop-opacity:0"/>
		</linearGradient>
		<polygon style="opacity:0.2;fill:url(#SVGID_24_);" points="-405.3912659,-43.1286125 -405.3912659,-43.1199303 
			-398.7552795,-39.2891121 -392.1203308,-43.1199303 -392.1203308,-43.1286125 -398.7552795,-46.9599304 		"/>
		<polygon style="fill:#F45D34;" points="-412.0267334,-53.5001068 -412.0267334,-46.9553261 -405.3912659,-43.1245079 
			-405.3912659,-49.669838 		"/>
		<polygon style="fill:#E54013;" points="-405.3912659,-49.669838 -405.3912659,-49.669838 -405.3912659,-43.1245079 
			-405.3912659,-43.124012 -398.7557983,-46.9553261 -398.7557983,-53.5001068 		"/>
		<polygon style="fill:#F26F51;" points="-398.7557983,-58.1767731 -398.7557983,-58.1691093 -392.1201172,-54.3372726 
			-385.4853821,-58.1691093 -385.4853821,-58.1767731 -392.1201172,-62.0080605 		"/>
		<polygon style="fill:#F45D34;" points="-398.7557983,-58.1731911 -398.7557983,-46.9553261 -392.1206055,-43.1245079 
			-392.1206055,-54.3423729 		"/>
		<polygon style="fill:#E54013;" points="-392.1201172,-54.3423729 -392.1206055,-49.669838 -392.1206055,-43.1245079 
			-392.1201172,-43.124012 -385.4853821,-46.9553261 -385.4853821,-58.1731911 		"/>
		<polygon style="fill:#F26F51;" points="-385.4851685,-62.993351 -385.4851685,-62.9854507 -378.8491821,-59.1538734 
			-372.2137146,-62.9854507 -372.2137146,-62.993351 -378.8491821,-66.8246613 		"/>
		<polygon style="fill:#F45D34;" points="-385.4853821,-62.9892693 -385.4853821,-46.9553261 -378.8494263,-43.1245079 
			-378.8494263,-59.1589737 		"/>
		<polygon style="fill:#E54013;" points="-378.8494263,-59.1538734 -378.8494263,-49.669838 -378.8494263,-43.1245079 
			-378.8494263,-43.124012 -372.2139587,-46.9553261 -372.2139587,-62.993351 		"/>
		<path style="fill:#3C3C3B;" d="M-387.9199829-74.2687988c0.0180969,0.2041626,0.2405396,0.350769,0.4967041,0.327652
			l1.9320068-0.1746902l2.4925537,7.6633911c0.0569763,0.1716309,0.2602539,0.2819366,0.4837341,0.2619019l6.4919128-0.5868912
			c0.2564087-0.0232239,0.4487305-0.2070923,0.4300842-0.4116745c-0.0184021-0.2040405-0.2405701-0.3505173-0.4969788-0.3272629
			l-6.1050415,0.5518723l-0.4706726-1.4474106l7.3694458-0.6662903c0.1871948-0.0169754,0.3478394-0.1215515,0.4075928-0.2659912
			l1.9177246-4.6429291c0.0492554-0.1193771,0.0219421-0.2487488-0.0735779-0.3433685
			c-0.0952454-0.0947495-0.2459412-0.1435165-0.4006958-0.1296082l-10.8682251,0.9825974l-0.3739014-1.1505127
			c-0.056427-0.171608-0.260498-0.282074-0.4839783-0.2618866l-2.3189087,0.2096558
			C-387.7463379-74.6571274-387.9386597-74.4729919-387.9199829-74.2687988z M-377.3513184-71.127182l2.318634-0.2095261
			l-0.6394653,1.5476303l-1.5456238,0.1397018L-377.3513184-71.127182z M-377.5517883-73.3439178l3.4778442-0.3143997
			l-0.6394958,1.5475235l-2.7045593,0.2446747L-377.5517883-73.3439178z M-380.1335144-70.8756256l1.8548889-0.1676559
			l0.1335449,1.4777985l-1.8546143,0.1677856L-380.1335144-70.8756256z M-380.3337402-73.0923691l1.8543701-0.1676559
			l0.1340637,1.4777985l-1.8548584,0.1676559L-380.3337402-73.0923691z M-383.3720703-70.5828094l2.3109741-0.2089233
			l0.1338196,1.4777985l-1.9733582,0.1784058L-383.3720703-70.5828094z M-384.0779724-72.7538605l2.8164063-0.2546158
			l0.1338196,1.4778061l-2.4797974,0.2240906L-384.0779724-72.7538605z"/>
		
			<ellipse transform="matrix(-0.0900756 -0.9959349 0.9959349 -0.0900756 -347.0099182 -445.9307861)" style="fill:#3C3C3B;" cx="-377.2147217" cy="-64.4445953" rx="1.3297098" ry="1.3967948"/>
		
			<ellipse transform="matrix(-0.0899824 -0.9959434 0.9959434 -0.0899824 -351.3516541 -449.256958)" style="fill:#3C3C3B;" cx="-380.9243164" cy="-64.1092072" rx="1.3296329" ry="1.3969008"/>
	</g>
	<g>
		<g>
			<text transform="matrix(1 0 0 1 -334.2932739 -46.6905403)"><tspan x="0" y="0" style="fill:#3C3C3B; font-family:'Roboto-Light'; font-size:15.7850103;">Escala</tspan><tspan x="45.8671875" y="0" style="fill:#3C3C3B; font-family:'Roboto-Light'; font-size:15.7850103;">t</tspan><tspan x="50.9545898" y="0" style="fill:#3C3C3B; font-family:'Roboto-Light'; font-size:15.7850103;">or</tspan></text>
			
				<text transform="matrix(1 0 0 1 -366.8899536 -46.5020638)" style="fill:#3C3C3B; font-family:'Arvo-Bold'; font-size:15.4669304;">ROI</text>
		</g>
		<g>
			<text transform="matrix(1 0 0 1 -366.8899536 -63.9708138)"><tspan x="0" y="0" style="fill:#898989; font-family:'Roboto-Light'; font-size:13.7773705;">P</tspan><tspan x="8.4360352" y="0" style="fill:#898989; font-family:'Roboto-Light'; font-size:13.7773705;">owe</tspan><tspan x="33.6293945" y="0" style="fill:#898989; font-family:'Roboto-Light'; font-size:13.7773705;">r</tspan><tspan x="38.1904297" y="0" style="fill:#898989; font-family:'Roboto-Light'; font-size:13.7773705;">ed </tspan><tspan x="56.3071289" y="0" style="fill:#898989; font-family:'Roboto-Light'; font-size:13.7773705;">b</tspan><tspan x="63.9018555" y="0" style="fill:#898989; font-family:'Roboto-Light'; font-size:13.7773705;">y </tspan></text>
		</g>
	</g>
</g>
</svg>
